<svg width="32" height="32" viewBox="0 0 32 32" fill="none" xmlns="http://www.w3.org/2000/svg">
    <path d="M31.5211 19.8706C29.3841 28.442 20.7027 33.6585 12.1303 31.521C3.56136 29.384 -1.65509 20.7021 0.482888 12.1312C2.61887 3.55876 11.3003 -1.65819 19.8702 0.478793C28.4422 2.61577 33.6581 11.2987 31.5211 19.8706Z" fill="url(#paint0_linear)"/>
    <path d="M23.0398 13.7391C23.3583 11.6101 21.7373 10.4657 19.5209 9.70216L20.2398 6.81819L18.4844 6.3807L17.7844 9.18867C17.3229 9.07367 16.8489 8.96517 16.3779 8.85767L17.0829 6.0312L15.3284 5.5937L14.6089 8.47668C14.2269 8.38968 13.8519 8.30368 13.4879 8.21318L13.4899 8.20418L11.0689 7.59968L10.6019 9.47467C10.6019 9.47467 11.9044 9.77316 11.8769 9.79166C12.5879 9.96916 12.7164 10.4397 12.6949 10.8127L11.8759 14.0981C11.9249 14.1106 11.9884 14.1286 12.0584 14.1566C11.9999 14.1421 11.9374 14.1261 11.8729 14.1106L10.7249 18.7131C10.6379 18.9291 10.4174 19.2531 9.92043 19.1301C9.93793 19.1556 8.64444 18.8116 8.64444 18.8116L7.77295 20.8211L10.0574 21.3905C10.4824 21.497 10.8989 21.6085 11.3089 21.7135L10.5824 24.6305L12.3359 25.068L13.0554 22.182C13.5344 22.312 13.9994 22.432 14.4544 22.545L13.7374 25.4175L15.4929 25.855L16.2194 22.9435C19.2129 23.51 21.4638 23.2815 22.4113 20.5741C23.1748 18.3941 22.3733 17.1366 20.7983 16.3166C21.9453 16.0521 22.8093 15.2976 23.0398 13.7391ZM19.0289 19.3636C18.4864 21.5435 14.8159 20.3651 13.6259 20.0696L14.5899 16.2051C15.7799 16.5021 19.5959 17.0901 19.0289 19.3636ZM19.5719 13.7076C19.0769 15.6906 16.0219 14.6831 15.0309 14.4361L15.9049 10.9312C16.8959 11.1781 20.0873 11.6391 19.5719 13.7076Z" fill="white"/>
    <defs>
    <linearGradient id="paint0_linear" x1="0.00366211" y1="0" x2="0.00366211" y2="32" gradientUnits="userSpaceOnUse">
    <stop stop-color="#F9AA4B"/>
    <stop offset="1" stop-color="#F7931A"/>
    </linearGradient>
    </defs>
</svg>
