<svg width="148" height="32" viewBox="0 0 148 32" fill="none" xmlns="http://www.w3.org/2000/svg">
<path opacity="0.5" d="M20.7818 24.9817C20.2546 25.2545 19.6909 25.4908 19.1273 25.6908C19.0909 25.709 19.0727 25.709 19.0364 25.709C18.8909 25.7636 18.7455 25.7999 18.5818 25.8363C18.5455 25.8545 18.4909 25.8545 18.4545 25.8727C18.2909 25.909 18.1091 25.9454 17.9273 25.9818C17.8909 25.9818 17.8545 25.9999 17.8182 25.9999C17.6545 26.0363 17.4727 26.0545 17.3091 26.0727C17.2909 26.0727 17.2727 26.0727 17.2545 26.0727C17.0545 26.0909 16.8727 26.109 16.6727 26.1272C16.6545 26.1272 16.6182 26.1272 16.6 26.1272C16.4 26.1454 16.2 26.1454 16 26.1454C15.9272 26.1454 15.8727 26.1454 15.8182 26.1454C15.7272 26.1454 15.6363 26.1454 15.5454 26.1454C15.4181 26.1454 15.2909 26.1272 15.1636 26.1272C12.5636 25.909 10.2545 24.7272 8.56354 22.9272L8.03626 27.0363L3.94531 26.5272C6.89079 29.8727 11.1999 32 16 32C17.5273 32 19 31.7818 20.4 31.3818C22.0728 30.9091 23.6182 30.1636 25.0182 29.2182L20.7818 24.9817Z" fill="#5540DB"/>
<path d="M7.41825 26.2365L7.92735 22.1819C6.61824 20.4728 5.83642 18.3274 5.83642 16.0001C5.83642 13.9273 6.45461 11.9818 7.52734 10.3818L3.36367 10.8727L2.89094 6.83633C1.07274 9.41818 0 12.5818 0 16.0001C0 19.6546 1.23638 23.0183 3.29094 25.7092L7.41825 26.2365Z" fill="#5540DB"/>
<path opacity="0.75" d="M20.1457 0.54546C18.8184 0.18182 17.4366 0 16.0002 0C10.9638 0 6.45464 2.34548 3.52734 5.98188L4.00008 10.0546L8.10921 9.58191C9.98195 7.29098 12.8002 5.83642 15.982 5.83642C16.8366 5.83642 17.6548 5.94552 18.4548 6.14552L16.5457 2.38184L20.1457 0.54546Z" fill="#5540DB"/>
<path opacity="0.5" d="M21.1456 0.854736L17.5273 2.69112L19.4183 6.41843C23.1456 7.74571 25.8729 11.2003 26.1274 15.3276L29.0729 12.3821L31.9639 15.2731C31.6911 8.5639 27.2547 2.92748 21.1456 0.854736Z" fill="#5540DB"/>
<path d="M31.9995 16.3274L29.0904 13.4183L26.1631 16.3456C26.0358 20.0911 23.8904 23.3275 20.7812 24.9821L24.9813 29.1821L27.7631 31.9639C29.3632 30.7821 30.7814 29.3639 31.9632 27.7639L29.1995 25.0002C30.9086 22.5457 31.9268 19.5456 31.9995 16.3274Z" fill="#5540DB"/>
<path d="M16.0006 15.8729H21.8734C21.8734 12.6365 19.2552 10.0001 16.0006 10.0001C12.746 10.0001 10.146 12.6365 10.146 15.8729C10.146 19.1093 12.7642 21.7457 16.0188 21.7457V15.8729H16.0006Z" fill="#231B5C"/>
<path d="M52.5472 8.27399C52.5472 5.28825 50.6934 3.58594 48.2736 3.58594C45.8405 3.58594 44 5.28825 44 8.27399C44 11.2464 45.8405 12.9621 48.2736 12.9621C48.844 12.9621 49.3832 12.8685 49.8734 12.6813L50.6087 13.5859H52.4091L51.1034 11.946C51.9947 11.1483 52.5472 9.90055 52.5472 8.27399ZM47.6052 9.66437L48.7727 11.2063C48.6168 11.2375 48.4474 11.2553 48.2736 11.2553C46.8699 11.2553 45.9563 10.208 45.9563 8.27399C45.9563 6.33995 46.8699 5.29271 48.2736 5.29271C49.6729 5.29271 50.5909 6.33995 50.5909 8.27399C50.5909 9.26776 50.3458 10.0298 49.9225 10.5334L49.2451 9.66437H47.6052Z" fill="#231B5C"/>
<path d="M59.6139 3.71071V9.47275C59.6139 10.5155 58.883 11.2686 57.76 11.2686C56.6415 11.2686 55.9062 10.5155 55.9062 9.47275V3.71071H53.9766V9.63763C53.9766 11.6341 55.4828 12.9665 57.76 12.9665C60.0283 12.9665 61.5434 11.6341 61.5434 9.63763V3.71071H59.6139Z" fill="#231B5C"/>
<path d="M65.0606 3.71071H63.131V12.8373H65.0606V3.71071Z" fill="#231B5C"/>
<path d="M68.297 3.71071H66.1535L69.3041 12.8373H71.7908L74.9369 3.71071H72.7979L70.5876 10.6448H70.5029L68.297 3.71071Z" fill="#231B5C"/>
<path d="M76.0354 12.8373H82.203V11.2464H77.965V9.06722H81.8688V7.47631H77.965V5.30162H82.1852V3.71071H76.0354V12.8373Z" fill="#231B5C"/>
<path d="M83.7192 12.8373H85.6488V9.60198H87.057L88.7861 12.8373H90.9162L88.9777 9.29004C90.016 8.84441 90.5909 7.93977 90.5909 6.692C90.5909 4.87827 89.3922 3.71071 87.32 3.71071H83.7192V12.8373ZM85.6488 8.05118V5.28826H86.9501C88.0642 5.28826 88.6034 5.78291 88.6034 6.692C88.6034 7.59663 88.0642 8.05118 86.959 8.05118H85.6488Z" fill="#231B5C"/>
<path d="M44 28.2599H50.6619V26.7138H45.8445V23.9347H50.2791V22.3885H45.8445V19.6243H50.6222V18.0781H44V28.2599Z" fill="#5540DB"/>
<path d="M52.4244 28.2599H54.2241V23.6165C54.2241 22.6768 54.8505 22.0405 55.6261 22.0405C56.3867 22.0405 56.9087 22.5526 56.9087 23.3381V28.2599H58.6737V23.4972C58.6737 22.6371 59.1857 22.0405 60.0558 22.0405C60.7816 22.0405 61.3583 22.468 61.3583 23.4126V28.2599H63.163V23.1342C63.163 21.429 62.1786 20.5241 60.7766 20.5241C59.668 20.5241 58.8228 21.071 58.4847 21.9212H58.4052C58.1119 21.0561 57.3711 20.5241 56.342 20.5241C55.3178 20.5241 54.5522 21.0511 54.234 21.9212H54.1445V20.6236H52.4244V28.2599Z" fill="#5540DB"/>
<path d="M68.3198 28.4091C70.557 28.4091 71.9789 26.8331 71.9789 24.4716C71.9789 22.1051 70.557 20.5241 68.3198 20.5241C66.0826 20.5241 64.6607 22.1051 64.6607 24.4716C64.6607 26.8331 66.0826 28.4091 68.3198 28.4091ZM68.3297 26.9673C67.0918 26.9673 66.4853 25.8636 66.4853 24.4666C66.4853 23.0696 67.0918 21.951 68.3297 21.951C69.5478 21.951 70.1543 23.0696 70.1543 24.4666C70.1543 25.8636 69.5478 26.9673 68.3297 26.9673Z" fill="#5540DB"/>
<path d="M77.3196 20.6236H75.8132V18.794H74.0135V20.6236H72.9297V22.0156H74.0135V26.2614C74.0036 27.6982 75.0476 28.4041 76.3999 28.3643C76.9119 28.3494 77.2649 28.25 77.4588 28.1854L77.1555 26.7784C77.0561 26.8033 76.8523 26.848 76.6286 26.848C76.1761 26.848 75.8132 26.6889 75.8132 25.9631V22.0156H77.3196V20.6236Z" fill="#5540DB"/>
<path d="M78.8248 28.2599H80.6245V20.6236H78.8248v28.2599ZM79.7296 19.5398C80.3013 19.5398 80.7686 19.1023 80.7686 18.5653C80.7686 18.0234 80.3013 17.5859 79.7296 17.5859C79.1529 17.5859 78.6855 18.0234 78.6855 18.5653C78.6855 19.1023 79.1529 19.5398 79.7296 19.5398Z" fill="#5540DB"/>
<path d="M85.8061 28.4091C88.0433 28.4091 89.4652 26.8331 89.4652 24.4716C89.4652 22.1051 88.0433 20.5241 85.8061 20.5241C83.5689 20.5241 82.147 22.1051 82.147 24.4716C82.147 26.8331 83.5689 28.4091 85.8061 28.4091ZM85.8161 26.9673C84.5781 26.9673 83.9716 25.8636 83.9716 24.4666C83.9716 23.0696 84.5781 21.951 85.8161 21.951C87.0341 21.951 87.6406 23.0696 87.6406 24.4666C87.6406 25.8636 87.0341 26.9673 85.8161 26.9673Z" fill="#5540DB"/>
<path d="M92.7924 23.7855C92.7924 22.6818 93.4586 22.0455 94.4082 22.0455C95.3379 22.0455 95.8947 22.657 95.8947 23.6761V28.2599H97.6944V23.3977C97.6994 21.5682 96.6554 20.5241 95.0794 20.5241C93.9359 20.5241 93.1504 21.071 92.8024 21.9212H92.7129V20.6236H90.9927V28.2599H92.7924V23.7855Z" fill="#5540DB"/>
<path d="M101.721 28.4141C102.92 28.4141 103.635 27.8523 103.964 27.2109H104.023V28.2599H105.753V23.1491C105.753 21.1307 104.108 20.5241 102.651 20.5241C101.045 20.5241 99.8123 21.2401 99.4146 22.6321L101.095 22.8707C101.274 22.3487 101.781 21.9013 102.661 21.9013C103.496 21.9013 103.954 22.3288 103.954 23.0795V23.1094C103.954 23.6264 103.412 23.6513 102.064 23.7955C100.583 23.9545 99.166 24.397 99.166 26.1172C99.166 27.6186 100.265 28.4141 101.721 28.4141ZM102.189 27.0916C101.438 27.0916 100.901 26.7486 100.901 26.0874C100.901 25.3963 101.503 25.108 102.308 24.9936C102.78 24.929 103.725 24.8097 103.959 24.6207V25.5206C103.959 26.3707 103.273 27.0916 102.189 27.0916Z" fill="#5540DB"/>
<path d="M109.363 18.0781H107.563V28.2599H109.363V18.0781Z" fill="#5540DB"/>
<path d="M123.133 18.0781H121.298V25.0185H121.209L116.416 18.0781H114.766V28.2599H116.61V21.3246H116.695L121.492 28.2599H123.133V18.0781Z" fill="#5540DB"/>
<path d="M125.143 28.2599H126.987V23.9347H131.218V22.3885H126.987V19.6243H131.665V18.0781H125.143V28.2599Z" fill="#5540DB"/>
<path d="M132.898 19.6243H136.045V28.2599H137.875V19.6243H141.022V18.0781H132.898V19.6243Z" fill="#5540DB"/>
<path d="M147.505 22.642C147.256 21.3494 146.222 20.5241 144.432 20.5241C142.593 20.5241 141.34 21.429 141.345 22.8409C141.34 23.9545 142.026 24.6903 143.493 24.9936L144.795 25.267C145.496 25.4212 145.824 25.7045 145.824 26.1371C145.824 26.6591 145.258 27.0518 144.403 27.0518C143.577 27.0518 143.04 26.6939 142.886 26.0078L141.131 26.1768C141.355 27.5788 142.533 28.4091 144.407 28.4091C146.317 28.4091 147.664 27.4197 147.669 25.973C147.664 24.8842 146.963 24.218 145.521 23.9048L144.219 23.6264C143.443 23.4524 143.135 23.1839 143.14 22.7415C143.135 22.2244 143.706 21.8665 144.457 21.8665C145.287 21.8665 145.725 22.3189 145.864 22.821L147.505 22.642Z" fill="#5540DB"/>
</svg>
