<svg width="17" height="17" viewBox="0 0 17 17" fill="none" xmlns="http://www.w3.org/2000/svg">
<path opacity="0.5" d="M11.2909 12.4945C11.0273 12.6309 10.7454 12.7491 10.4636 12.8491C10.4454 12.8582 10.4363 12.8582 10.4182 12.8582C10.3454 12.8855 10.2727 12.9036 10.1909 12.9218C10.1727 12.9309 10.1454 12.9309 10.1273 12.94C10.0454 12.9582 9.95452 12.9764 9.86361 12.9945C9.84543 12.9945 9.82725 13.0036 9.80906 13.0036C9.72724 13.0218 9.63633 13.0309 9.55451 13.04C9.54542 13.04 9.53633 13.04 9.52724 13.04C9.42724 13.0491 9.33633 13.0582 9.23632 13.0673C9.22723 13.0673 9.20905 13.0673 9.19996 13.0673C9.09996 13.0764 8.99996 13.0764 8.89995 13.0764C8.86359 13.0764 8.83632 13.0764 8.80904 13.0764C8.76359 13.0764 8.71813 13.0764 8.67268 13.0764C8.60904 13.0764 8.5454 13.0673 8.48176 13.0673C7.18174 12.9582 6.02717 12.3673 5.1817 11.4673L4.91805 13.5218L2.87256 13.2673C4.34532 14.94 6.49991 16.0037 8.89995 16.0037C9.66361 16.0037 10.4 15.8946 11.1 15.6946C11.9364 15.4582 12.7091 15.0855 13.4091 14.6127L11.2909 12.4945Z" fill="#5540DB"/>
<path d="M4.60907 13.122L4.86362 11.0947C4.20906 10.2401 3.81814 9.16739 3.81814 8.00374C3.81814 6.96737 4.12724 5.99463 4.66362 5.19462L2.58176 5.44008L2.34539 3.42188C1.43628 4.7128 0.899902 6.29463 0.899902 8.00374C0.899902 9.83103 1.5181 11.5129 2.54539 12.8583L4.60907 13.122Z" fill="#5540DB"/>
<path opacity="0.75" d="M10.9728 0.276392C10.3092 0.0945722 9.61827 0.00366211 8.90007 0.00366211C6.38183 0.00366211 4.12724 1.1764 2.66357 2.9946L2.89994 5.03099L4.95453 4.79462C5.89091 3.64915 7.30003 2.92187 8.89098 2.92187C9.31826 2.92187 9.72736 2.97642 10.1274 3.07642L9.1728 1.19458L10.9728 0.276392Z" fill="#5540DB"/>
<path opacity="0.5" d="M11.4727 0.431L9.66357 1.34919L10.609 3.21285C12.4727 3.87649 13.8364 5.60378 13.9637 7.66744L15.4364 6.1947L16.8819 7.64017C16.7455 4.28559 14.5273 1.46737 11.4727 0.431Z" fill="#5540DB"/>
<path d="M16.8997 8.1673L15.4452 6.71274L13.9815 8.17639C13.9179 10.0491 12.8451 11.6673 11.2905 12.4946L13.3906 14.5946L14.7815 15.9856C15.5815 15.3947 16.2906 14.6856 16.8816 13.8855L15.4997 12.5037C16.3543 11.2764 16.8634 9.77641 16.8997 8.1673Z" fill="#5540DB"/>
<path d="M8.89999 7.94009H11.8364C11.8364 6.32189 10.5273 5.00369 8.89999 5.00369C7.27268 5.00369 5.97266 6.32189 5.97266 7.94009C5.97266 9.55829 7.28178 10.8765 8.90908 10.8765V7.94009H8.89999Z" fill="#231B5C"/>
</svg>
